<?xml version="1.0" encoding="UTF-8"?>
<svg version="1.1" xmlns="http://www.w3.org/2000/svg" width="796" height="783">
<path d="M0 0 C69.96 0 139.92 0 212 0 C216.53266383 9.06532767 220.85300273 18.01361191 224.8125 27.3125 C225.94827381 29.95930103 227.08747743 32.60462262 228.2265625 35.25 C228.67575294 36.29460136 228.67575294 36.29460136 229.13401794 37.36030579 C232.93836477 46.1981845 236.81478023 55.00442711 240.6875 63.8125 C241.45616461 65.56159228 242.22480047 67.31069719 242.9934082 69.05981445 C244.55179582 72.60592073 246.11052211 76.1518779 247.66943359 79.69775391 C251.07589026 87.44674525 254.47783607 95.19771668 257.8800354 102.94857788 C259.75316389 107.21580334 261.6265977 111.48289475 263.5 115.75 C264.25000146 117.45833269 265.00000146 119.16666603 265.75 120.875 C266.12125 121.720625 266.4925 122.56625 266.875 123.4375 C342.25000009 295.1250002 342.25000009 295.1250002 343.37493896 297.68736267 C344.12514075 299.3961545 344.8753442 301.1049456 345.62554932 302.81373596 C347.49747562 307.07754835 349.36937324 311.34137332 351.24121094 315.60522461 C354.65286158 323.37653166 358.06474468 331.1477363 361.47766113 338.91848755 C368.9421206 355.91409883 376.40305454 372.91119073 383.83911133 389.91925049 C391.10241892 406.53109371 398.39488655 423.13012854 405.68554688 439.72998047 C409.83143051 449.16982182 413.97549384 458.61046245 418.11987305 468.05096436 C419.241362 470.60559596 420.36286351 473.16022204 421.484375 475.71484375 C421.85481934 476.55865601 422.22526367 477.40246826 422.60693359 478.27185059 C424.89677485 483.48757251 427.18706078 488.70309895 429.47766113 493.91848755 C436.9421206 510.91409883 444.40305454 527.91119073 451.83911133 544.91925049 C459.10241892 561.53109371 466.39488655 578.13012854 473.68554688 594.72998047 C477.83143051 604.16982182 481.97549384 613.61046245 486.11987305 623.05096436 C487.241362 625.60559596 488.36286351 628.16022204 489.484375 630.71484375 C489.85481934 631.55865601 490.22526367 632.40246826 490.60693359 633.27185059 C493.67086794 640.25077523 496.73566231 647.229322 499.80076599 654.20773315 C501.70082976 658.53393265 503.60026862 662.86040446 505.49829102 667.1875 C506.23452913 668.8658892 506.97077579 670.54427465 507.70703125 672.22265625 C508.06620132 673.04146271 508.4253714 673.86026917 508.79542542 674.70388794 C510.90018074 679.50012651 513.01088032 684.29368911 515.12722778 689.08482361 C516.42882022 692.03263793 517.72740801 694.98177024 519.0255127 697.93112183 C519.62277385 699.28603167 520.22143561 700.64032517 520.82165527 701.993927 C521.64389365 703.84849277 522.46072561 705.70545263 523.27734375 707.5625 C523.73359131 708.59503906 524.18983887 709.62757813 524.65991211 710.69140625 C526.29310731 714.72366374 527.62426649 718.87279946 529 723 C456.4 723 383.8 723 309 723 C301.05993982 705.41843817 293.15327005 687.86521441 285.52734375 670.15234375 C281.49821011 660.81212328 277.40528132 651.49996242 273.3125 642.1875 C272.93275024 641.3232843 272.55300049 640.4590686 272.16174316 639.56866455 C270.218435 635.1463415 268.27463984 630.72423277 266.33056641 626.30224609 C262.92410974 618.55325475 259.52216393 610.80228332 256.1199646 603.05142212 C254.24683611 598.78419666 252.3734023 594.51710525 250.5 590.25 C249.74999854 588.54166731 248.99999854 586.83333397 248.25 585.125 C247.87875 584.279375 247.5075 583.43375 247.125 582.5625 C189.7500001 451.87500022 189.7500001 451.87500022 188.62506104 449.31263733 C187.87485925 447.6038455 187.1246558 445.8950544 186.37445068 444.18626404 C184.50252438 439.92245165 182.63062676 435.65862668 180.75878906 431.39477539 C177.34713842 423.62346834 173.93525532 415.8522637 170.52233887 408.08151245 C163.0578794 391.08590117 155.59694546 374.08880927 148.16088867 357.08074951 C140.89758108 340.46890629 133.60511345 323.86987146 126.31445312 307.27001953 C122.16856949 297.83017818 118.02450616 288.38953755 113.88012695 278.94903564 C112.758638 276.39440404 111.63713649 273.83977796 110.515625 271.28515625 C110.14518066 270.44134399 109.77473633 269.59753174 109.39306641 268.72814941 C107.10322515 263.51242749 104.81293922 258.29690105 102.52233887 253.08151245 C95.0578794 236.08590117 87.59694546 219.08880927 80.16088867 202.08074951 C72.89758108 185.46890629 65.60511345 168.86987146 58.31445312 152.27001953 C54.16856949 142.83017818 50.02450616 133.38953755 45.88012695 123.94903564 C44.758638 121.39440404 43.63713649 118.83977796 42.515625 116.28515625 C41.9599585 115.01943787 41.9599585 115.01943787 41.39306641 113.72814941 C38.71569819 107.62973185 36.03762939 101.53162218 33.359375 95.43359375 C26.61320736 80.07293467 19.86775024 64.71195886 13.13928223 49.34353638 C12.56125216 48.02337046 11.98305505 46.70327766 11.40466309 45.38327026 C10.09771952 42.40021019 8.79743656 39.41522882 7.51757812 36.42041016 C6.50537942 34.13905496 5.42488221 31.88681088 4.27929688 29.66943359 C-1.2024657 18.58569435 0 14.09371715 0 0 Z " fill="#381695" transform="translate(0,25)"/>
<path d="M0 0 C71.61 0 143.22 0 217 0 C217 7.45669462 216.64253062 11.09994231 213.6953125 17.40625 C213.34499969 18.1914502 212.99468689 18.97665039 212.63375854 19.78564453 C211.47934951 22.36423115 210.30215435 24.93172786 209.125 27.5 C208.30292023 29.32667964 207.48263948 31.15416987 206.6640625 32.98242188 C204.96300156 36.77791565 203.25427237 40.56981335 201.54003906 44.359375 C197.99941633 52.20189299 194.55351793 60.08558007 191.10687256 67.96972656 C189.24242262 72.23179641 187.37082559 76.4907259 185.5 80.75 C184.74996631 82.45831854 183.99996629 84.16665187 183.25 85.875 C175.75 102.95833333 168.25 120.04166667 160.75 137.125 C160.37877014 137.97057968 160.00754028 138.81615936 159.62506104 139.68736267 C158.87485925 141.3961545 158.1246558 143.1049456 157.37445068 144.81373596 C155.50252438 149.07754835 153.63062676 153.34137332 151.75878906 157.60522461 C148.34713842 165.37653166 144.93525532 173.1477363 141.52233887 180.91848755 C134.33865396 197.27481137 127.15635103 213.63169493 120 230 C114.7605806 241.98381895 109.50854377 253.96206057 104.25 265.9375 C103.8729895 266.79608612 103.495979 267.65467224 103.10754395 268.53927612 C100.01655953 275.5783056 96.92503603 282.61709828 93.83349609 289.65588379 C91.13874995 295.79131388 88.44420903 301.92683403 85.75 308.0625 C85.37266724 308.92181122 84.99533447 309.78112244 84.60656738 310.66647339 C79.72945281 321.77404552 74.85966066 332.8847811 70 344 C62.47341693 361.21511527 54.91815443 378.41761695 47.36279297 395.62011719 C43.73368275 403.88314198 40.10530691 412.14648919 36.47717285 420.40994263 C35.35174172 422.97312647 34.22617136 425.53624914 33.10058594 428.09936523 C32.571884 429.30385063 32.571884 429.30385063 32.03250122 430.53266907 C31.34539914 432.0970678 30.6574937 433.66111398 29.96871948 435.22477722 C28.28965078 439.04037961 26.62824249 442.86217382 24.99755859 446.69873047 C24.67853073 447.44392441 24.35950287 448.18911835 24.0308075 448.95689392 C23.42881351 450.36484889 22.83201861 451.77504202 22.24128723 453.1877594 C20.22420766 457.88789617 20.22420766 457.88789617 18 459 C4.23576841 432.44745725 -7.53580524 405.38861106 -17 377 C-17.57959473 375.27112549 -17.57959473 375.27112549 -18.17089844 373.50732422 C-34.13948108 325.38071995 -42.91450945 274.71050042 -44 224 C-44.03287109 222.56769043 -44.03287109 222.56769043 -44.06640625 221.10644531 C-45.23533933 161.1596603 -35.93799238 101.6637106 -17.1875 44.75 C-16.96099762 44.05592041 -16.73449524 43.36184082 -16.50112915 42.64672852 C-11.72401709 28.10398507 -5.79476451 14.22351289 0 0 Z " fill="#461BAD" transform="translate(579,25)"/>
</svg>
